<?xml version="1.0" encoding="UTF-8"?>
<svg xmlns="http://www.w3.org/2000/svg">
  <symbol id="core" viewBox="0 0 39 39">
    <path d="m18 16.515h-3v3h3zm3 0h3v3h-3zm0 0h-3v3h3zm0-3h-3v3h3zm0 6h-3v3h3z"/>
  </symbol>
  <symbol id="main-body" viewBox="0 0 39 39">
    <path d="m12 10.5h-3v3h3zm3 3h-3v3h3zm3-3h-3v3h3zm-6 6h-3v3h3zm3 0h-3v3h3zm0 3h-3v3h3zm3-6h-3v3h3zm0 9h-3v3h3zm0-3h-3v3h3zm9-9h3v3h-3zm-3 0h3v3h-3zm3 3h3v3h-3zm-3 0h3v3h-3zm-3-3h3v3h-3zm6 6h3v3h-3zm-3 0h3v3h-3zm0 3h3v3h-3zm-3-6h3v3h-3zm0 9h3v3h-3zm0-3h3v3h-3zm0 3h-3v3h3zm0 3h-3v3h3z"/>
  </symbol>
  <symbol id="contour" viewBox="0 0 39 39">
    <path transform="translate(-.5 -.5)" d="m12.5 8h-3v3h3zm3 0h-3v3h3zm-6 3h-3v3h3zm0 3h-3v3h3zm0 3h-3v3h3zm9-9h-3v3h3zm-6 12h-3v3h3zm3 3h-3v3h3zm3 3h-3v3h3zm9-18h3v3h-3zm-3 0h3v3h-3zm6 3h3v3h-3zm0 3h3v3h-3zm0 3h3v3h-3zm-9-9h3v3h-3zm6 12h3v3h-3zm-3 3h3v3h-3zm-3 3h3v3h-3zm0 3h-3v3h3zm0-18h-3v3h3z"/>
  </symbol>
  <symbol id="sparks" viewBox="0 0 39 39">
    <path d="m36 14.5h3v3h-3zm-9 14h3v3h-3zm-9 6h3v3h-3zm-9-6h3v3h-3zm15-27h3v3h-3zm9 3h3v3h-3zm-30 0h3v3h-3zm9-3h3v3h-3zm-12 13h3v3h-3z"/>
  </symbol>
</svg>